<?xml version="1.0" standalone="no"?>
<!DOCTYPE svg PUBLIC "-//W3C//DTD SVG 20010904//EN"
 "http://www.w3.org/TR/2001/REC-SVG-20010904/DTD/svg10.dtd">
<svg version="1.0" xmlns="http://www.w3.org/2000/svg"
 width="774.000000pt" height="774.000000pt" viewBox="0 0 774.000000 774.000000"
 preserveAspectRatio="xMidYMid meet">
<metadata>
Created by potrace 1.14, written by Peter Selinger 2001-2017
</metadata>
<g transform="translate(0.000000,774.000000) scale(0.100000,-0.100000)"
fill="#000000" stroke="none">
<path d="M4305 6649 c-33 -4 -71 -9 -85 -13 -14 -4 -29 -8 -35 -10 -33 -8 -55
-18 -55 -26 0 -8 -38 -23 -53 -21 -5 1 -6 -3 -2 -9 3 -5 1 -10 -5 -10 -16 0
-110 -98 -110 -115 0 -7 -7 -16 -16 -19 -8 -3 -13 -10 -9 -15 3 -5 1 -12 -5
-16 -8 -5 -33 -78 -32 -95 0 -3 -3 -9 -7 -15 -4 -5 -7 -47 -7 -93 1 -45 -3
-82 -7 -82 -4 0 -4 -8 1 -17 7 -15 7 -55 1 -138 0 -5 2 -21 5 -35 3 -14 0 -27
-7 -32 -6 -4 -7 -8 -2 -8 8 0 10 -84 4 -165 0 -5 2 -21 5 -35 3 -14 0 -27 -7
-32 -6 -4 -7 -8 -2 -8 8 0 10 -84 4 -165 0 -5 2 -21 5 -35 3 -14 0 -27 -7 -32
-6 -4 -7 -8 -2 -8 6 0 9 -31 7 -77 -1 -43 -2 -82 -2 -88 0 -5 1 -54 3 -108 1
-53 -2 -97 -7 -97 -5 0 -4 -6 1 -12 5 -7 8 -31 6 -53 -5 -58 -5 -58 1 -85 3
-14 0 -27 -7 -32 -6 -4 -7 -8 -2 -8 8 0 10 -84 4 -165 0 -5 2 -21 5 -35 3 -14
0 -27 -7 -32 -6 -4 -7 -8 -2 -8 8 0 10 -84 4 -165 0 -5 2 -21 5 -35 3 -14 0
-27 -7 -32 -6 -4 -7 -8 -2 -8 8 0 10 -84 4 -165 0 -5 2 -21 5 -35 3 -14 0 -27
-7 -32 -6 -4 -7 -8 -2 -8 6 0 9 -31 7 -77 -1 -43 -2 -84 -2 -90 1 -29 0 -64
-1 -75 0 -7 2 -24 5 -38 3 -14 0 -27 -7 -32 -6 -4 -7 -8 -2 -8 8 0 10 -84 4
-165 0 -5 2 -21 5 -35 3 -14 0 -27 -7 -32 -6 -4 -7 -8 -2 -8 8 0 10 -84 4
-165 0 -5 2 -21 5 -35 3 -14 0 -27 -7 -32 -6 -4 -7 -8 -2 -8 8 0 10 -84 4
-165 0 -5 2 -21 5 -35 3 -14 0 -27 -7 -32 -6 -4 -7 -8 -2 -8 8 0 10 -84 4
-165 0 -5 2 -21 5 -35 3 -14 0 -27 -7 -32 -6 -4 -7 -8 -2 -8 6 0 9 -31 7 -77
-3 -96 -3 -91 2 -133 2 -19 -1 -41 -7 -47 -6 -8 -6 -13 0 -13 5 0 8 -27 6 -62
-2 -35 -4 -67 -4 -73 0 -5 2 -21 5 -35 3 -14 0 -27 -7 -32 -6 -4 -7 -8 -2 -8
6 0 10 -36 9 -87 l0 -88 -222 -1 c-122 0 -225 -3 -228 -7 -9 -9 -11 -167 -2
-173 6 -4 2092 -7 3083 -4 l200 0 0 89 c0 49 -2 89 -5 89 -3 0 -7 1 -10 2 -3
1 -104 2 -225 3 l-219 2 -1 232 c0 135 4 229 9 226 5 -4 5 0 0 8 -11 19 -12
479 0 472 5 -4 5 0 0 8 -11 19 -12 479 0 472 5 -4 5 0 0 8 -12 19 -12 319 0
312 5 -4 6 0 0 8 -11 19 -12 479 0 472 5 -4 5 0 0 8 -12 20 -12 498 1 503 6 2
27 3 48 1 20 -1 37 2 37 7 0 5 5 6 11 2 17 -10 109 -12 109 -2 0 5 5 6 12 2
11 -7 41 -13 76 -16 6 -1 12 -5 12 -10 0 -4 8 -8 18 -8 10 0 24 -9 32 -19 7
-11 17 -18 22 -15 4 3 8 0 8 -6 0 -6 6 -18 13 -25 29 -33 35 -43 31 -48 -3 -3
-1 -14 5 -26 14 -24 20 -721 7 -721 -5 0 -3 -7 4 -15 10 -12 10 -15 -1 -15
-11 0 -11 -2 1 -10 11 -7 11 -10 2 -10 -7 0 -10 -5 -6 -11 9 -15 11 -119 2
-119 -4 0 -3 -11 2 -25 6 -17 6 -25 -1 -25 -6 0 -7 -5 -4 -11 8 -12 7 -518 -1
-530 -2 -4 -1 -10 3 -12 5 -3 8 -28 7 -56 0 -28 3 -51 7 -51 4 0 7 -8 7 -17
-2 -24 42 -115 62 -130 8 -7 11 -13 6 -13 -13 0 76 -79 97 -86 9 -3 15 -10 12
-15 -5 -8 16 -14 38 -10 4 0 7 -4 7 -9 0 -6 9 -10 20 -10 11 0 20 -5 20 -10 0
-6 12 -10 28 -9 15 0 42 -4 60 -9 17 -6 32 -8 32 -4 0 4 20 7 45 6 25 0 57 5
71 12 18 10 23 10 17 1 -4 -7 0 -7 10 2 9 7 17 10 17 7 0 -4 7 0 16 8 8 9 19
14 24 11 5 -3 10 -1 12 4 1 5 9 11 17 13 29 7 167 158 145 158 -5 0 -3 4 4 9
7 4 14 18 15 29 1 12 4 22 7 22 4 0 7 6 8 13 0 6 3 23 7 37 6 26 8 2493 2
2520 -2 8 -7 32 -12 53 -4 20 -11 37 -17 37 -5 0 -7 4 -4 8 7 12 -58 107 -92
136 -8 6 -25 21 -38 33 -13 12 -24 20 -24 17 0 -3 -15 3 -33 13 -28 17 -67 31
-102 38 -5 1 -12 3 -15 4 -5 2 -423 4 -462 2 -16 -1 -18 -12 -18 -91 l0 -90
225 -1 c206 -1 240 -3 248 -9 1 -1 11 -3 22 -5 11 -2 21 -9 23 -14 2 -6 9 -11
17 -11 17 0 86 -80 79 -91 -3 -5 -1 -9 4 -9 5 0 10 -6 12 -12 8 -35 8 -2498 0
-2498 -5 0 -7 -6 -4 -14 3 -8 0 -17 -5 -21 -6 -3 -9 -10 -6 -14 8 -14 -67 -86
-110 -106 -49 -23 -175 -25 -175 -3 0 4 -7 8 -15 8 -35 0 -115 84 -107 113 1
4 -3 7 -8 7 -5 0 -9 3 -9 8 1 4 0 9 -1 12 -2 3 -4 356 -6 785 -3 810 -4 837
-16 845 -4 3 -9 17 -11 30 -8 37 -18 60 -28 60 -5 0 -9 6 -9 14 0 8 -13 28
-30 46 -16 18 -30 36 -30 42 0 5 -4 7 -9 4 -5 -4 -11 -3 -13 1 -6 15 -76 62
-82 56 -3 -3 -8 1 -12 10 -3 9 -12 13 -20 10 -8 -3 -14 -1 -14 3 0 5 -17 10
-37 12 -20 1 -42 7 -50 13 -9 9 -13 8 -13 0 0 -9 -5 -9 -20 -1 -13 7 -26 7
-38 1 -11 -6 -24 -6 -32 -1 -9 6 -17 5 -21 -2 -6 -9 -11 -9 -21 0 -11 9 -17 9
-26 0 -9 -9 -12 -9 -12 0 0 10 -5 10 -20 2 -11 -6 -20 -7 -20 -2 0 5 -12 8
-27 6 -27 -3 -28 -2 -29 51 0 32 4 51 9 48 6 -4 7 -1 1 8 -11 19 -12 479 0
472 5 -4 5 0 0 8 -11 18 -12 459 0 459 5 0 4 6 -2 13 -14 17 -13 69 2 60 6 -4
5 0 -2 9 -7 9 -14 31 -14 48 -1 17 -5 33 -10 36 -4 3 -8 16 -8 30 0 13 -5 24
-11 24 -6 0 -9 7 -5 15 3 8 1 15 -4 15 -6 0 -10 5 -10 10 0 16 -57 90 -64 83
-3 -3 -6 0 -6 7 0 7 -13 26 -30 42 -16 15 -30 25 -30 22 0 -4 -15 5 -34 19
-18 15 -36 23 -40 20 -3 -4 -6 -1 -6 6 0 7 -4 10 -9 6 -5 -3 -12 -1 -16 5 -3
5 -16 10 -29 10 -12 0 -26 3 -30 7 -3 4 -21 8 -39 10 -60 7 -1502 8 -1562 2z
m1563 -191 c6 -6 12 -8 12 -4 0 4 17 -2 38 -13 45 -23 124 -99 116 -112 -3 -5
0 -9 5 -9 6 0 11 -9 11 -20 0 -11 4 -20 8 -20 11 0 11 11 14 -599 3 -607 3
-605 -45 -579 -12 6 -22 11 -22 11 0 0 -9 -5 -21 -11 -12 -6 -26 -7 -34 -2 -9
6 -17 5 -22 -3 -5 -9 -10 -9 -19 0 -9 9 -16 10 -26 2 -9 -9 -13 -8 -13 0 0 8
-5 9 -17 2 -10 -5 -26 -5 -40 0 -15 5 -23 5 -23 -2 0 -6 -6 -7 -12 -3 -19 12
-48 12 -48 1 0 -5 -6 -4 -14 2 -8 7 -16 8 -19 4 -3 -5 -23 -7 -44 -5 -21 1
-44 3 -50 2 -31 -1 -39 0 -63 3 -14 2 -32 0 -41 -4 -8 -4 -21 -4 -29 1 -9 6
-17 5 -22 -3 -5 -9 -10 -9 -19 0 -9 9 -16 10 -26 2 -9 -9 -13 -8 -13 0 0 8 -5
9 -17 2 -10 -5 -26 -5 -40 0 -15 5 -23 5 -23 -2 0 -6 -6 -7 -12 -3 -19 12 -48
12 -48 1 0 -5 -6 -4 -14 2 -8 7 -16 8 -19 4 -3 -5 -23 -7 -44 -5 -21 1 -44 3
-50 2 -31 -1 -39 0 -63 3 -14 2 -32 0 -41 -4 -8 -4 -21 -4 -29 1 -9 6 -17 5
-21 -2 -6 -9 -11 -9 -21 0 -11 9 -17 9 -26 0 -9 -9 -12 -9 -12 0 0 9 -5 10
-17 3 -10 -5 -26 -5 -40 0 -15 5 -23 5 -23 -2 0 -6 -6 -7 -12 -3 -19 12 -48
12 -48 1 0 -5 -6 -4 -14 2 -8 7 -16 8 -19 4 -3 -5 -23 -7 -44 -5 -21 1 -44 3
-50 2 -31 -1 -39 0 -63 3 -14 2 -32 0 -41 -4 -8 -4 -21 -4 -29 1 -9 6 -17 5
-22 -3 -5 -9 -10 -9 -19 0 -9 9 -16 10 -26 2 -9 -9 -13 -8 -13 0 0 8 -5 9 -17
2 -10 -5 -26 -5 -40 0 -15 5 -23 5 -23 -2 0 -6 -6 -7 -12 -3 -19 12 -48 12
-48 1 0 -5 -6 -4 -14 2 -8 7 -16 8 -19 4 -3 -5 -23 -7 -44 -5 -21 1 -44 3 -50
2 -28 0 -39 0 -68 2 l-29 3 -1 560 c0 308 1 564 4 570 3 5 6 19 7 32 5 47 92
163 117 155 4 -1 7 3 7 10 0 6 3 8 7 5 3 -4 15 0 25 10 10 9 18 14 18 10 0 -3
12 -2 28 3 41 12 1574 10 1590 -2z m-1547 -1542 c60 -1 109 2 109 7 0 4 5 5
11 1 17 -10 109 -12 109 -2 0 5 5 6 12 2 18 -11 68 -13 68 -2 0 5 5 6 12 2 18
-11 68 -13 68 -2 0 5 5 6 12 2 18 -11 68 -13 68 -2 0 5 5 6 11 2 17 -10 109
-12 109 -2 0 5 5 6 11 2 16 -9 229 -11 229 -1 0 4 5 5 11 1 16 -9 229 -11 229
-1 0 4 5 5 11 1 17 -10 109 -12 109 -2 0 5 5 6 12 2 18 -11 68 -13 68 -2 0 5
5 6 12 2 18 -11 68 -13 68 -2 0 5 5 6 12 2 18 -11 68 -13 68 -2 0 5 5 6 11 2
17 -10 109 -12 109 -2 0 5 8 5 18 1 9 -5 54 -8 100 -8 51 1 82 -3 83 -9 4 -49
3 -2716 -1 -2718 -15 -4 -2000 -4 -2001 1 -3 17 -4 2708 -1 2718 3 8 23 11 63
9 32 -2 59 1 59 6 0 5 5 6 11 2 6 -3 60 -7 120 -8z"/>
<path d="M2564 3947 c-10 -6 -22 -15 -26 -21 -9 -12 -46 -121 -53 -154 -3 -12
-7 -31 -10 -43 -2 -11 -6 -28 -9 -37 -3 -9 -8 -38 -11 -64 -3 -26 -7 -62 -10
-80 -14 -106 -22 -428 -12 -498 4 -23 19 -108 22 -120 15 -63 82 -144 134
-161 43 -15 100 -18 107 -7 3 5 10 6 15 2 5 -3 16 0 24 6 8 7 15 10 15 6 0
-23 151 81 238 163 24 23 47 41 51 41 5 0 5 -18 1 -39 -7 -39 -11 -116 -14
-286 l-1 -89 -105 -72 c-147 -101 -383 -282 -475 -363 -97 -87 -265 -264 -326
-345 -92 -122 -175 -281 -194 -371 -19 -92 -22 -127 -20 -199 3 -102 26 -171
74 -223 34 -36 50 -46 112 -71 28 -11 197 -14 214 -3 6 3 21 7 34 9 41 5 163
67 221 112 156 121 329 363 420 590 12 30 28 69 35 85 46 106 125 405 141 530
2 22 7 51 9 65 2 14 7 45 10 70 3 25 8 54 10 65 2 11 4 27 4 36 1 16 58 41
121 52 14 3 36 10 50 15 14 5 28 10 33 11 4 0 9 2 12 2 8 2 18 5 53 13 80 19
78 146 -2 133 -49 -8 -83 -16 -113 -29 -32 -13 -52 -19 -70 -20 -7 -1 -13 -6
-13 -11 0 -6 -3 -7 -6 -4 -4 3 -15 2 -25 -3 -17 -9 -18 -5 -14 57 3 38 8 86
11 108 3 22 7 56 9 75 5 50 16 132 20 150 2 8 7 35 10 60 6 43 50 258 60 290
2 8 13 48 25 89 12 41 24 79 28 85 3 6 7 17 8 24 1 6 11 31 22 55 28 60 45
131 38 155 -9 27 -53 42 -89 29 -28 -9 -34 -20 -168 -304 -99 -209 -300 -457
-419 -516 -44 -22 -56 -24 -78 -14 -44 18 -59 35 -71 80 -37 133 -31 233 29
504 24 104 42 225 42 273 0 42 -6 63 -24 84 -26 28 -75 39 -104 23z m355
-1702 c15 -31 21 -145 9 -190 -4 -16 -9 -41 -12 -55 -2 -14 -16 -64 -30 -111
-108 -368 -342 -715 -546 -811 -40 -19 -105 -35 -135 -33 -11 1 -32 2 -47 3
-40 3 -96 56 -109 105 -15 58 -12 167 7 240 47 182 145 338 324 517 122 122
144 141 297 256 71 52 134 99 141 105 6 5 12 7 12 4 0 -3 8 -2 17 3 24 14 56
-1 72 -33z"/>
<path d="M427 3822 c-15 -16 -30 -68 -29 -102 0 -8 -6 -55 -13 -105 -8 -49
-16 -110 -20 -135 -3 -25 -8 -56 -10 -70 -3 -14 -7 -47 -10 -75 -3 -27 -7 -60
-9 -72 -3 -12 -8 -53 -11 -90 -4 -37 -8 -81 -10 -98 -13 -119 -16 -249 -5
-274 15 -38 64 -53 114 -36 21 7 39 15 41 17 1 1 22 57 45 123 68 193 110 272
184 347 69 69 174 104 207 68 31 -32 62 -108 105 -258 22 -75 37 -91 98 -98
65 -8 84 -1 143 56 159 151 456 327 507 298 17 -10 46 -64 52 -99 2 -9 20 -69
39 -135 82 -271 124 -315 299 -310 97 3 160 25 197 70 21 24 25 89 7 103 -13
9 -54 9 -116 0 -18 -2 -34 -1 -37 2 -2 4 -21 8 -42 9 -21 2 -47 12 -59 23 -27
25 -66 142 -89 264 -38 204 -84 313 -142 340 -32 15 -36 15 -86 -8 -57 -27
-225 -144 -345 -240 -110 -89 -203 -152 -230 -156 -31 -3 -59 22 -66 62 -3 18
-8 42 -11 55 -3 12 -7 32 -10 45 -2 12 -8 36 -12 52 -4 17 -7 32 -8 35 0 3 -7
23 -14 45 -32 93 -83 131 -166 122 -104 -11 -200 -78 -296 -208 -51 -68 -70
-81 -86 -56 -4 6 -8 119 -8 250 0 200 -2 239 -15 247 -24 15 -66 11 -83 -8z"/>
</g>
</svg>
